<?xml version="1.0" standalone="no"?>
<!DOCTYPE svg PUBLIC "-//W3C//DTD SVG 20010904//EN" "http://www.w3.org/TR/2001/REC-SVG-20010904/DTD/svg10.dtd">
<svg version="1.0" xmlns="http://www.w3.org/2000/svg"
 width="256.000000pt" height="252.000000pt" viewBox="0 0 256.000000 252.000000"
 preserveAspectRatio="xMidYMid meet">

<g transform="translate(0.000000,252.000000) scale(0.100000,-0.100000)"
fill="#000000" stroke="none">
<path d="M1170 2424 c-93 -19 -140 -60 -140 -123 0 -59 -12 -131 -21 -131 -5
0 -50 -18 -99 -39 l-91 -39 -61 54 c-56 50 -64 54 -110 54 -44 0 -59 -6 -113
-45 -59 -42 -123 -109 -173 -182 -27 -38 -29 -108 -6 -143 10 -14 34 -43 56
-66 l38 -40 -28 -65 c-16 -35 -35 -80 -41 -100 l-12 -36 -80 -6 c-127 -8 -154
-36 -170 -175 -8 -66 -8 -114 0 -173 17 -130 44 -156 169 -166 l81 -6 12 -36
c6 -20 25 -65 41 -100 l28 -65 -38 -40 c-58 -61 -72 -86 -72 -131 0 -52 41
-118 121 -197 96 -93 138 -115 214 -110 11 1 48 26 83 56 l62 55 73 -34 c40
-18 85 -37 100 -40 24 -6 27 -12 28 -49 2 -144 32 -186 150 -206 95 -16 237
-8 286 17 57 28 72 57 79 148 l7 80 101 41 101 41 59 -53 c55 -50 63 -54 108
-54 54 0 76 11 159 82 70 59 137 145 150 192 13 45 -5 89 -60 149 -23 24 -41
50 -41 56 0 7 16 54 37 106 l36 92 81 7 c93 7 121 23 151 82 16 33 19 60 20
174 0 115 -3 141 -20 174 -30 59 -58 75 -152 82 -77 6 -82 8 -88 33 -4 14 -22
59 -41 100 l-34 73 55 60 c52 55 55 62 55 110 0 35 -6 59 -22 81 -77 112 -190
213 -255 227 -48 11 -89 -6 -150 -63 l-48 -45 -90 39 c-49 21 -95 39 -101 39
-7 0 -13 32 -17 81 -9 138 -48 167 -228 174 -63 2 -125 1 -139 -1z m241 -102
c30 -12 39 -43 39 -127 0 -36 6 -60 18 -74 14 -17 187 -97 254 -118 31 -9 65
6 125 57 32 27 65 50 73 50 41 0 210 -170 210 -211 0 -8 -23 -40 -50 -71 -72
-81 -72 -93 -9 -244 31 -73 62 -132 74 -139 11 -8 57 -17 103 -21 98 -8 100
-10 109 -121 6 -79 -9 -187 -28 -199 -5 -3 -45 -8 -87 -10 -42 -3 -86 -11 -97
-18 -21 -14 -125 -247 -125 -280 0 -26 18 -55 67 -110 23 -26 43 -56 43 -66 0
-40 -168 -210 -208 -210 -8 0 -44 25 -80 56 -58 49 -70 55 -101 51 -43 -5
-249 -91 -271 -112 -10 -11 -17 -44 -21 -102 -4 -65 -9 -89 -23 -98 -37 -27
-215 -30 -282 -5 -19 7 -22 18 -26 88 -5 83 -23 128 -56 139 -9 3 -64 25 -121
49 -57 24 -116 44 -132 44 -20 0 -46 -16 -90 -55 -34 -30 -68 -55 -76 -55 -41
0 -213 168 -213 208 0 7 25 42 55 77 68 80 69 97 15 216 -22 49 -40 96 -40
105 0 8 -13 28 -28 44 -25 25 -38 29 -115 35 -66 6 -90 11 -96 24 -25 46 -20
266 6 292 4 4 44 11 88 14 44 4 88 11 98 17 11 5 28 31 39 56 11 26 36 82 55
126 45 100 42 127 -26 205 -28 32 -51 64 -51 71 0 39 171 210 210 210 8 0 44
-25 78 -55 43 -37 72 -55 90 -55 24 0 127 39 240 91 54 24 72 63 72 153 0 70
4 75 60 87 45 10 197 4 231 -9z"/>
<path d="M1142 1875 c-198 -43 -386 -213 -457 -414 l-14 -41 37 0 c37 0 38 2
66 65 15 35 34 69 42 76 12 9 14 5 14 -27 0 -22 3 -56 6 -76 6 -37 8 -38 46
-38 33 0 39 3 34 16 -4 10 -9 49 -12 88 -6 75 11 151 33 151 7 0 33 -29 58
-65 74 -103 73 -93 4 -142 l-61 -43 61 -3 c43 -2 67 2 86 14 23 15 25 15 31 0
4 -11 19 -16 50 -16 24 0 44 2 44 5 0 3 -10 19 -22 35 -25 34 -28 29 65 94
l69 46 28 -23 c53 -45 121 -129 116 -143 -4 -11 8 -14 57 -14 60 0 65 2 147
60 47 33 89 60 93 60 5 0 21 -27 35 -60 26 -58 28 -60 64 -60 l37 0 -14 41
c-53 148 -181 296 -316 362 -130 64 -284 83 -427 52z m244 -67 c35 -6 64 -15
64 -19 0 -8 -114 -89 -125 -89 -4 0 -21 11 -39 25 -18 13 -57 35 -87 49 -54
24 -54 24 -24 31 17 4 35 8 40 10 23 8 112 4 171 -7z m213 -87 c61 -39 128
-109 116 -119 -6 -5 -47 -35 -93 -66 l-83 -58 -22 29 c-12 15 -45 53 -75 84
l-53 57 73 51 c40 28 77 51 82 51 5 0 30 -13 55 -29z m-423 -20 c95 -49 93
-43 19 -96 -65 -47 -67 -47 -84 -29 -38 40 -110 152 -103 159 15 15 111 -4
168 -34z"/>
<path d="M579 1312 c-29 -24 -20 -48 25 -67 19 -8 37 -19 41 -25 10 -17 -25
-24 -51 -10 -28 16 -42 7 -24 -15 19 -23 87 -20 100 5 15 27 0 52 -39 65 -39
13 -36 31 6 28 24 -2 31 1 27 11 -5 12 -34 25 -55 26 -4 0 -17 -8 -30 -18z"/>
<path d="M1488 1323 c-20 -5 -31 -33 -22 -57 3 -9 20 -20 38 -24 40 -10 49
-42 12 -42 -14 0 -26 5 -26 10 0 6 -7 10 -15 10 -18 0 -19 -12 -3 -28 13 -13
56 -16 82 -6 9 4 16 18 16 34 0 23 -7 31 -40 44 -54 21 -53 40 3 31 l42 -6
-24 21 c-23 20 -31 22 -63 13z"/>
<path d="M2223 1320 c-16 -6 -23 -18 -23 -35 0 -22 8 -30 40 -42 22 -9 40 -20
40 -25 0 -16 -31 -21 -56 -8 -29 16 -42 7 -24 -15 9 -11 26 -15 53 -13 71 5
77 62 8 82 -45 13 -42 40 4 32 42 -8 48 9 9 24 -14 6 -26 10 -27 9 -1 0 -12
-4 -24 -9z"/>
<path d="M290 1251 l0 -71 50 0 c39 0 51 4 60 20 6 11 8 25 4 32 -4 6 -7 27
-8 47 l-1 36 -52 3 -53 3 0 -70z m80 34 c0 -9 -9 -15 -25 -15 -16 0 -25 6 -25
15 0 9 9 15 25 15 16 0 25 -6 25 -15z m5 -65 c0 -9 -11 -16 -27 -18 -23 -3
-28 1 -28 18 0 17 5 21 28 18 16 -2 27 -9 27 -18z"/>
<path d="M430 1250 l0 -70 55 0 c30 0 55 5 55 10 0 6 -18 10 -40 10 -33 0 -40
3 -40 19 0 16 8 20 38 23 46 4 45 22 -3 26 -52 5 -47 32 5 32 22 0 40 5 40 10
0 6 -25 10 -55 10 l-55 0 0 -70z"/>
<path d="M690 1310 c0 -5 9 -10 20 -10 18 0 20 -7 20 -60 0 -46 3 -60 15 -60
10 0 15 15 17 58 3 50 6 57 26 60 46 7 20 22 -38 22 -33 0 -60 -4 -60 -10z"/>
<path d="M870 1310 c0 -5 9 -10 20 -10 18 0 20 -7 20 -60 0 -47 3 -60 15 -60
12 0 15 13 15 60 0 57 1 60 25 60 14 0 25 5 25 10 0 6 -27 10 -60 10 -33 0
-60 -4 -60 -10z"/>
<path d="M1010 1251 c0 -56 3 -71 15 -71 10 0 15 10 15 31 0 26 3 30 23 27 16
-2 23 -11 25 -30 2 -16 9 -28 17 -28 11 0 14 15 12 68 l-2 67 -52 3 -53 3 0
-70z m75 29 c0 -8 -10 -16 -22 -18 -18 -3 -23 2 -23 18 0 16 5 21 23 18 12 -2
22 -10 22 -18z"/>
<path d="M1185 1308 c-38 -102 -43 -128 -29 -128 8 0 17 7 20 15 4 8 18 15 34
15 16 0 30 -7 34 -15 4 -12 37 -23 36 -12 0 1 -11 31 -24 67 -18 49 -29 66
-45 68 -12 2 -23 -3 -26 -10z m37 -43 c4 -20 1 -25 -14 -25 -14 0 -18 5 -14
16 3 9 6 20 6 25 0 20 18 7 22 -16z"/>
<path d="M1300 1250 c0 -54 3 -70 14 -70 11 0 16 15 18 53 l3 52 28 -52 c19
-37 33 -53 47 -53 18 0 20 7 20 70 0 56 -3 70 -15 70 -11 0 -15 -12 -15 -47
l-1 -48 -27 47 c-20 35 -33 48 -49 48 -22 0 -23 -4 -23 -70z"/>
<path d="M1650 1250 c0 -56 3 -70 15 -70 9 0 15 9 15 25 0 19 5 25 21 25 47 0
77 36 59 71 -8 15 -22 19 -60 19 l-50 0 0 -70z m83 36 c7 -19 -1 -26 -30 -26
-22 0 -31 19 -16 33 11 12 41 7 46 -7z"/>
<path d="M1791 1258 c-25 -74 -25 -78 -6 -78 8 0 15 7 15 15 0 10 10 15 30 15
18 0 33 -6 36 -15 7 -18 37 -20 32 -2 -2 6 -12 38 -22 70 -16 47 -24 57 -42
57 -18 0 -26 -11 -43 -62z m55 -15 c-2 -3 -11 -3 -19 -1 -11 2 -12 9 -5 28
l10 25 9 -24 c5 -13 7 -26 5 -28z"/>
<path d="M1930 1250 c0 -56 3 -70 15 -70 10 0 15 10 15 30 0 17 4 30 9 30 25
0 41 -14 41 -36 0 -14 6 -24 14 -24 11 0 14 14 14 58 -1 31 -6 63 -11 70 -5 6
-29 12 -53 12 l-44 0 0 -70z m75 30 c0 -8 -10 -16 -22 -18 -18 -3 -23 2 -23
18 0 16 5 21 23 18 12 -2 22 -10 22 -18z"/>
<path d="M2060 1310 c0 -5 9 -10 20 -10 18 0 20 -7 20 -60 0 -47 3 -60 15 -60
12 0 15 13 15 60 0 57 1 60 25 60 14 0 25 5 25 10 0 6 -27 10 -60 10 -33 0
-60 -4 -60 -10z"/>
<path d="M685 1049 c85 -240 310 -410 564 -426 277 -17 542 161 636 426 l14
41 -38 0 c-37 0 -39 -1 -65 -65 -16 -35 -34 -69 -42 -76 -12 -9 -14 -5 -14 27
0 22 -3 56 -6 77 -6 36 -8 37 -46 37 -34 0 -39 -3 -33 -17 4 -10 9 -49 12 -88
5 -70 -11 -145 -32 -152 -5 -2 -36 36 -69 83 -46 67 -56 88 -45 95 8 4 36 24
64 43 l50 36 -63 0 c-35 0 -73 -5 -84 -11 -14 -8 -23 -8 -31 0 -6 6 -31 11
-55 11 l-44 0 22 -36 c12 -19 21 -36 19 -38 -2 -2 -38 -26 -78 -55 l-75 -52
-63 63 c-35 35 -69 75 -76 90 -11 26 -16 28 -68 28 -52 0 -62 -4 -143 -60 -48
-34 -91 -58 -95 -55 -5 2 -19 29 -31 60 -22 53 -24 55 -61 55 l-38 0 14 -41z
m368 -43 c9 -13 41 -51 71 -83 l55 -60 -76 -53 -75 -53 -34 20 c-47 26 -146
113 -142 124 3 10 169 129 179 129 4 0 14 -11 22 -24z m460 -141 c56 -82 57
-85 35 -90 -46 -12 -143 20 -211 67 l-28 20 63 44 c35 24 68 44 73 44 6 0 36
-39 68 -85z m-211 -88 c29 -18 68 -39 87 -47 33 -13 33 -14 10 -23 -38 -15
-209 -12 -248 5 l-35 14 60 42 c32 23 62 42 66 42 4 0 31 -15 60 -33z"/>
</g>
</svg>
